<svg width="99" height="33" viewBox="0 0 99 33" fill="none" xmlns="http://www.w3.org/2000/svg">
<path d="M10.48 26.88H16.92C18.8133 26.88 20.4933 26.3467 21.96 25.28C22.8133 26 23.24 26.9467 23.24 28.12C23.24 29.2933 22.8133 30.24 21.96 30.96C21.1067 31.6533 19.8267 32 18.12 32H9.44C6.77333 32 4.81333 31.4267 3.56 30.28C2.33333 29.1333 1.72 27.32 1.72 24.84V7.08C1.72 5.72 1.26667 4.8 0.36 4.32C1.34667 3.14666 2.56 2.56 4 2.56H17.36C19.4667 2.56 20.9733 2.84 21.88 3.4C22.7867 3.93333 23.24 4.73333 23.24 5.8C23.24 6.86667 22.8133 7.76 21.96 8.48C20.68 7.97333 19 7.72 16.92 7.72H8V13.72H13.52C15.6533 13.72 17.16 13.9467 18.04 14.4C18.9467 14.8533 19.4 15.6267 19.4 16.72C19.4 17.7867 18.9733 18.6533 18.12 19.32C17.16 19 15.48 18.84 13.08 18.84H8V24.04C8 25.9333 8.82667 26.88 10.48 26.88ZM59.7528 17.84V27.88C59.7528 29.32 60.1795 30.2667 61.0328 30.72C60.0728 31.8667 58.8595 32.44 57.3928 32.44C54.7795 32.44 53.4728 30.8533 53.4728 27.68V18.76C53.4728 17.8 53.2328 17.0533 52.7528 16.52C52.2995 15.96 51.6461 15.68 50.7928 15.68C49.9395 15.68 49.1128 16.0667 48.3128 16.84C47.5128 17.5867 46.9395 18.7067 46.5928 20.2V27.88C46.5928 29.32 47.0195 30.2667 47.8728 30.72C46.9128 31.8667 45.6995 32.44 44.2328 32.44C41.6195 32.44 40.3128 30.8533 40.3128 27.68V18.76C40.3128 17.8 40.0728 17.0533 39.5928 16.52C39.1395 15.96 38.4861 15.68 37.6328 15.68C36.7795 15.68 35.9528 16.08 35.1528 16.88C34.3528 17.6533 33.7795 18.8133 33.4328 20.36V27.88C33.4328 29.32 33.8728 30.2667 34.7528 30.72C33.7395 31.8667 32.5128 32.44 31.0728 32.44C28.4595 32.44 27.1528 30.8533 27.1528 27.68V15.16C27.1528 13.7733 26.6995 12.84 25.7928 12.36C26.8061 11.2133 27.9928 10.64 29.3528 10.64C30.7128 10.64 31.7128 10.9867 32.3528 11.68C32.9928 12.3467 33.3528 13.3867 33.4328 14.8C34.1528 13.44 35.1395 12.4133 36.3928 11.72C37.6728 11 39.0461 10.64 40.5128 10.64C42.0061 10.64 43.2595 11.04 44.2728 11.84C45.2861 12.64 45.9661 13.8 46.3128 15.32C47.0061 13.8 48.0195 12.64 49.3528 11.84C50.6861 11.04 52.2061 10.64 53.9128 10.64C55.6195 10.64 57.0195 11.2533 58.1128 12.48C59.2061 13.7067 59.7528 15.4933 59.7528 17.84ZM74.5066 26.88H80.9466C82.8399 26.88 84.5199 26.3467 85.9866 25.28C86.8399 26 87.2666 26.9467 87.2666 28.12C87.2666 29.2933 86.8399 30.24 85.9866 30.96C85.1332 31.6533 83.8532 32 82.1466 32H73.4666C70.7999 32 68.8399 31.4267 67.5866 30.28C66.3599 29.1333 65.7466 27.32 65.7466 24.84V7.08C65.7466 5.72 65.2932 4.8 64.3866 4.32C65.3732 3.14666 66.5866 2.56 68.0266 2.56H81.3866C83.4932 2.56 84.9999 2.84 85.9066 3.4C86.8132 3.93333 87.2666 4.73333 87.2666 5.8C87.2666 6.86667 86.8399 7.76 85.9866 8.48C84.7066 7.97333 83.0266 7.72 80.9466 7.72H72.0266V13.72H77.5466C79.6799 13.72 81.1866 13.9467 82.0666 14.4C82.9732 14.8533 83.4266 15.6267 83.4266 16.72C83.4266 17.7867 82.9999 18.6533 82.1466 19.32C81.1866 19 79.5066 18.84 77.1066 18.84H72.0266V24.04C72.0266 25.9333 72.8532 26.88 74.5066 26.88ZM97.4594 5.4V27.88C97.4594 29.32 97.8994 30.2667 98.7794 30.72C97.766 31.8667 96.5394 32.44 95.0994 32.44C92.486 32.44 91.1794 30.8533 91.1794 27.68V5.16C91.1794 3.82667 90.726 2.88 89.8194 2.32C90.8327 1.2 92.0594 0.639998 93.4994 0.639998C96.1394 0.639998 97.4594 2.22667 97.4594 5.4Z" fill="#0055FF"/>
</svg>
